<?xml version="1.0" standalone="no"?>
<!DOCTYPE svg PUBLIC "-//W3C//DTD SVG 20010904//EN"
 "http://www.w3.org/TR/2001/REC-SVG-20010904/DTD/svg10.dtd">
<svg version="1.0" xmlns="http://www.w3.org/2000/svg"
 width="700.000000pt" height="700.000000pt" viewBox="0 0 700.000000 700.000000"
 preserveAspectRatio="xMidYMid meet">
<metadata>
Created by potrace 1.11, written by Peter Selinger 2001-2013
</metadata>
<g transform="translate(0.000000,700.000000) scale(0.100000,-0.100000)"
fill="#000000" stroke="none">
<path d="M4820 5730 l0 -390 -520 0 -520 0 0 -525 0 -525 520 0 520 0 0 -390
c0 -214 3 -390 8 -390 4 0 301 294 660 653 l652 652 -653 653 c-358 358 -655
652 -660 652 -4 0 -7 -175 -7 -390z"/>
<path d="M1044 5576 c-62 -29 -118 -92 -140 -159 -15 -44 -16 -77 -10 -225 31
-837 272 -1598 724 -2291 673 -1033 1749 -1743 2963 -1956 230 -40 420 -58
639 -59 230 -1 244 2 315 72 77 76 75 53 75 643 l0 525 -26 52 c-14 28 -40 64
-57 78 -64 54 -100 63 -303 73 -288 15 -458 45 -804 141 -50 14 -88 19 -115
14 -95 -15 -119 -34 -433 -347 l-303 -302 -82 44 c-638 343 -1184 874 -1545
1501 -33 58 -68 122 -78 143 l-18 37 301 303 c192 193 308 318 322 345 30 59
36 125 16 192 -93 321 -132 544 -144 826 -8 177 -9 184 -38 236 -34 60 -95
112 -151 128 -23 6 -226 10 -547 10 l-510 0 -51 -24z"/>
</g>
</svg>
